{
    "asset" : {
        "generator" : "Khronos glTF Blender I/O v1.1.46",
        "version" : "2.0"
    },
    "scene" : 0,
    "scenes" : [
        {
            "name" : "Scene",
            "nodes" : [
                0
            ]
        }
    ],
    "nodes" : [
        {
            "mesh" : 0,
            "name" : "Cube.015",
            "rotation" : [
                0.4876178503036499,
                0.4167487621307373,
                0.6632817387580872,
                -0.3854953348636627
            ],
            "scale" : [
                7.5,
                7.5,
                7.5
            ]
        }
    ],
    "materials" : [
        {
            "doubleSided" : true,
            "emissiveFactor" : [
                0,
                0,
                0
            ],
            "name" : "Rock",
            "normalTexture" : {
                "index" : 0,
                "texCoord" : 0
            },
            "pbrMetallicRoughness" : {
                "baseColorTexture" : {
                    "index" : 1,
                    "texCoord" : 0
                },
                "metallicFactor" : 0,
                "roughnessFactor" : 1
            }
        }
    ],
    "meshes" : [
        {
            "name" : "Cube.002",
            "primitives" : [
                {
                    "attributes" : {
                        "POSITION" : 0,
                        "NORMAL" : 1,
                        "TEXCOORD_0" : 2
                    },
                    "indices" : 3,
                    "material" : 0
                }
            ]
        }
    ],
    "textures" : [
        {
            "source" : 0
        },
        {
            "source" : 1
        }
    ],
    "images" : [
        {
            "mimeType" : "image/jpeg",
            "name" : "normal",
            "uri" : "textures/rock/normal.jpg"
        },
        {
            "mimeType" : "image/jpeg",
            "name" : "baseColor",
            "uri" : "textures/rock/baseColor.jpg"
        }
    ],
    "accessors" : [
        {
            "bufferView" : 0,
            "componentType" : 5126,
            "count" : 649,
            "max" : [
                0.5563063621520996,
                0.5116347670555115,
                0.8699829578399658
            ],
            "min" : [
                -0.5563371777534485,
                -0.5536098480224609,
                -1.1290346384048462
            ],
            "type" : "VEC3"
        },
        {
            "bufferView" : 1,
            "componentType" : 5126,
            "count" : 649,
            "type" : "VEC3"
        },
        {
            "bufferView" : 2,
            "componentType" : 5126,
            "count" : 649,
            "type" : "VEC2"
        },
        {
            "bufferView" : 3,
            "componentType" : 5123,
            "count" : 2730,
            "type" : "SCALAR"
        }
    ],
    "bufferViews" : [
        {
            "buffer" : 0,
            "byteLength" : 7788,
            "byteOffset" : 0
        },
        {
            "buffer" : 0,
            "byteLength" : 7788,
            "byteOffset" : 7788
        },
        {
            "buffer" : 0,
            "byteLength" : 5192,
            "byteOffset" : 15576
        },
        {
            "buffer" : 0,
            "byteLength" : 5460,
            "byteOffset" : 20768
        }
    ],
    "buffers" : [
        {
            "byteLength" : 26228,
            "uri" : "rock.bin"
        }
    ]
}
