{
    "asset" : {
        "generator" : "Khronos glTF Blender I/O v1.0.5",
        "version" : "2.0"
    },
    "scene" : 0,
    "scenes" : [
        {
            "name" : "Scene",
            "nodes" : [
                0
            ]
        }
    ],
    "nodes" : [
        {
            "mesh" : 0,
            "name" : "Rock",
            "rotation" : [
                0.7146667242050171,
                0,
                0,
                -0.6994651556015015
            ]
        }
    ],
    "materials" : [
        {
            "doubleSided" : true,
            "name" : "Rock",
            "normalTexture" : {
                "index" : 0,
                "texCoord" : 0
            },
            "pbrMetallicRoughness" : {
                "baseColorTexture" : {
                    "index" : 1,
                    "texCoord" : 0
                },
                "metallicFactor" : 0,
                "metallicRoughnessTexture" : {
                    "index" : 2,
                    "texCoord" : 0
                }
            }
        }
    ],
    "meshes" : [
        {
            "name" : "Cube.012",
            "primitives" : [
                {
                    "attributes" : {
                        "POSITION" : 0,
                        "NORMAL" : 1,
                        "TANGENT" : 2,
                        "TEXCOORD_0" : 3
                    },
                    "indices" : 4,
                    "material" : 0
                }
            ]
        }
    ],
    "textures" : [
        {
            "source" : 0
        },
        {
            "source" : 1
        },
        {
            "source" : 2
        }
    ],
    "images" : [
        {
            "mimeType" : "image/jpeg",
            "name" : "normal",
            "uri" : "textures/rock/normal.jpg"
        },
        {
            "mimeType" : "image/jpeg",
            "name" : "albedo",
            "uri" : "textures/rock/albedo.jpg"
        },
        {
            "mimeType" : "image/jpeg",
            "name" : "roughness",
            "uri" : "textures/rock/roughness.jpg"
        }
    ],
    "accessors" : [
        {
            "bufferView" : 0,
            "componentType" : 5126,
            "count" : 2304,
            "max" : [
                2.5167429447174072,
                2.5077149868011475,
                2.0180299282073975
            ],
            "min" : [
                -2.4832570552825928,
                -2.492284059524536,
                -1.981969952583313
            ],
            "type" : "VEC3"
        },
        {
            "bufferView" : 1,
            "componentType" : 5126,
            "count" : 2304,
            "type" : "VEC3"
        },
        {
            "bufferView" : 2,
            "componentType" : 5126,
            "count" : 2304,
            "type" : "VEC4"
        },
        {
            "bufferView" : 3,
            "componentType" : 5126,
            "count" : 2304,
            "type" : "VEC2"
        },
        {
            "bufferView" : 4,
            "componentType" : 5123,
            "count" : 2304,
            "type" : "SCALAR"
        }
    ],
    "bufferViews" : [
        {
            "buffer" : 0,
            "byteLength" : 27648,
            "byteOffset" : 0
        },
        {
            "buffer" : 0,
            "byteLength" : 27648,
            "byteOffset" : 27648
        },
        {
            "buffer" : 0,
            "byteLength" : 36864,
            "byteOffset" : 55296
        },
        {
            "buffer" : 0,
            "byteLength" : 18432,
            "byteOffset" : 92160
        },
        {
            "buffer" : 0,
            "byteLength" : 4608,
            "byteOffset" : 110592
        }
    ],
    "buffers" : [
        {
            "byteLength" : 115200,
            "uri" : "rock.bin"
        }
    ]
}
