{
    "asset" : {
        "generator" : "Khronos glTF Blender I/O v1.1.46",
        "version" : "2.0"
    },
    "scene" : 0,
    "scenes" : [
        {
            "name" : "Scene",
            "nodes" : [
                0,
                1,
                2,
                3,
                4,
                5,
                6,
                7,
                8,
                9,
                10,
                11,
                12,
                13,
                14,
                15,
                16,
                17,
                18,
                19,
                20,
                21,
                22,
                23
            ]
        }
    ],
    "nodes" : [
        {
            "mesh" : 0,
            "name" : "Cube.096",
            "rotation" : [
                -0.8921272158622742,
                -0.09436705708503723,
                -0.44125714898109436,
                -0.022271689027547836
            ],
            "scale" : [
                19.913066864013672,
                19.913061141967773,
                19.913063049316406
            ],
            "translation" : [
                -28.024879455566406,
                -16.790489196777344,
                17.704090118408203
            ]
        },
        {
            "mesh" : 0,
            "name" : "Cube.098",
            "rotation" : [
                -0.496105819940567,
                -0.05534285679459572,
                -0.863021194934845,
                -0.07752858847379684
            ],
            "scale" : [
                19.765369415283203,
                19.765369415283203,
                19.765361785888672
            ],
            "translation" : [
                -21.889917373657227,
                -17.472871780395508,
                16.701635360717773
            ]
        },
        {
            "mesh" : 0,
            "name" : "Cube.110",
            "rotation" : [
                -0.8531500697135925,
                -0.05037051439285278,
                -0.5190843939781189,
                -0.01221183780580759
            ],
            "scale" : [
                19.021286010742188,
                19.021284103393555,
                19.021286010742188
            ],
            "translation" : [
                -9.856886863708496,
                -15.50635814666748,
                16.265295028686523
            ]
        },
        {
            "mesh" : 0,
            "name" : "Cube.124",
            "rotation" : [
                -0.36411964893341064,
                -0.06717176735401154,
                -0.9289267063140869,
                -0.00017711648251861334
            ],
            "scale" : [
                19.72231674194336,
                19.722309112548828,
                19.722312927246094
            ],
            "translation" : [
                0.40115588903427124,
                -18.385875701904297,
                16.625507354736328
            ]
        },
        {
            "mesh" : 0,
            "name" : "Cube.667",
            "rotation" : [
                -0.9636958837509155,
                -0.12220741808414459,
                -0.23739275336265564,
                -0.0006447837222367525
            ],
            "scale" : [
                21.183332443237305,
                21.183326721191406,
                21.18332862854004
            ],
            "translation" : [
                14.395833015441895,
                -20.00629997253418,
                17.79113006591797
            ]
        },
        {
            "mesh" : 0,
            "name" : "Cube.669",
            "rotation" : [
                -0.9928683638572693,
                -0.012825493700802326,
                -0.11452782154083252,
                0.03051617182791233
            ],
            "scale" : [
                20.29906463623047,
                20.299060821533203,
                20.29905891418457
            ],
            "translation" : [
                22.072629928588867,
                -18.85970115661621,
                15.757669448852539
            ]
        },
        {
            "mesh" : 0,
            "name" : "Cube.1020",
            "rotation" : [
                -0.6253403425216675,
                0.01843435689806938,
                -0.77608722448349,
                -0.07936134934425354
            ],
            "scale" : [
                20.05402374267578,
                18.888071060180664,
                18.230390548706055
            ],
            "translation" : [
                28.461706161499023,
                -16.923498153686523,
                17.602933883666992
            ]
        },
        {
            "mesh" : 1,
            "name" : "Plane.024"
        },
        {
            "mesh" : 2,
            "name" : "Cone.001",
            "rotation" : [
                0.01755073480308056,
                0.523777961730957,
                -0.15918444097042084,
                0.8366653919219971
            ],
            "scale" : [
                0.9420815706253052,
                0.934887170791626,
                0.8717038035392761
            ],
            "translation" : [
                17.908477783203125,
                -0.15947550535202026,
                14.172752380371094
            ]
        },
        {
            "mesh" : 2,
            "name" : "Cone.002",
            "rotation" : [
                0.1128762811422348,
                -0.9880644679069519,
                -0.021761612966656685,
                0.10253772884607315
            ],
            "scale" : [
                1.005154013633728,
                0.8552842736244202,
                0.9565868973731995
            ],
            "translation" : [
                14.776668548583984,
                0.391949862241745,
                16.075075149536133
            ]
        },
        {
            "mesh" : 2,
            "name" : "Cone.003",
            "rotation" : [
                -0.05120178312063217,
                -0.6582488417625427,
                0.16437706351280212,
                0.732848584651947
            ],
            "scale" : [
                0.9746828675270081,
                0.8761909008026123,
                0.86142897605896
            ],
            "translation" : [
                5.901027202606201,
                0.2728703022003174,
                16.139923095703125
            ]
        },
        {
            "mesh" : 2,
            "name" : "Cone.004",
            "rotation" : [
                -0.1432993859052658,
                0.23026986420154572,
                -0.11700164526700974,
                0.955380380153656
            ],
            "scale" : [
                0.5816294550895691,
                0.5665932297706604,
                0.5384273529052734
            ],
            "translation" : [
                11.382059097290039,
                0.12574917078018188,
                16.553327560424805
            ]
        },
        {
            "mesh" : 2,
            "name" : "Cone.005",
            "rotation" : [
                0.054342154413461685,
                -0.5447105765342712,
                -0.042007818818092346,
                0.8358065485954285
            ],
            "scale" : [
                0.8627713322639465,
                0.8870211243629456,
                0.8182593584060669
            ],
            "translation" : [
                -3.136091947555542,
                -0.3880143463611603,
                15.856005668640137
            ]
        },
        {
            "mesh" : 2,
            "name" : "Cone.006",
            "rotation" : [
                0.02072790637612343,
                -0.46708670258522034,
                0.05191224440932274,
                0.8824428915977478
            ],
            "scale" : [
                0.5630990266799927,
                0.5509209632873535,
                0.5512338280677795
            ],
            "translation" : [
                -9.501087188720703,
                -0.11838287115097046,
                16.121524810791016
            ]
        },
        {
            "mesh" : 2,
            "name" : "Cone.007",
            "rotation" : [
                0,
                -0.6621274948120117,
                0,
                0.7493911981582642
            ],
            "scale" : [
                0.48976486921310425,
                0.48976486921310425,
                0.48976486921310425
            ],
            "translation" : [
                -14.533530235290527,
                -0.2479139268398285,
                14.883086204528809
            ]
        },
        {
            "mesh" : 2,
            "name" : "Cone.008",
            "rotation" : [
                -0.19695833325386047,
                0.4379512667655945,
                0.006478354800492525,
                0.8771340250968933
            ],
            "scale" : [
                0.6375136971473694,
                0.6345505714416504,
                0.6280015110969543
            ],
            "translation" : [
                -20.26092529296875,
                -0.13268102705478668,
                16.209064483642578
            ]
        },
        {
            "mesh" : 2,
            "name" : "Cone.009",
            "rotation" : [
                0.10501919686794281,
                0.2477085143327713,
                0.04598541930317879,
                0.9620274305343628
            ],
            "scale" : [
                0.9966036081314087,
                0.948224663734436,
                1.0050901174545288
            ],
            "translation" : [
                -22.873167037963867,
                -0.7346419095993042,
                11.90585994720459
            ]
        },
        {
            "mesh" : 2,
            "name" : "Cone.010",
            "rotation" : [
                -0.02504555508494377,
                0.5250524282455444,
                -0.16817067563533783,
                0.833913266658783
            ],
            "scale" : [
                0.7889190912246704,
                0.7620111107826233,
                0.6829585433006287
            ],
            "translation" : [
                -28.433820724487305,
                -0.25177693367004395,
                15.760876655578613
            ]
        },
        {
            "mesh" : 2,
            "name" : "Cone.011",
            "rotation" : [
                0.10617924481630325,
                -0.9357391595840454,
                -0.08246132731437683,
                -0.3260648846626282
            ],
            "scale" : [
                0.43867456912994385,
                0.44908979535102844,
                0.49202802777290344
            ],
            "translation" : [
                -14.92275619506836,
                0.04195117950439453,
                10.096349716186523
            ]
        },
        {
            "mesh" : 2,
            "name" : "Cone.012",
            "rotation" : [
                0.009061106480658054,
                -0.45647087693214417,
                0.16596849262714386,
                0.8740747570991516
            ],
            "scale" : [
                0.8782831430435181,
                0.8410372734069824,
                0.81727135181427
            ],
            "translation" : [
                -6.001084327697754,
                -0.17498323321342468,
                15.880230903625488
            ]
        },
        {
            "mesh" : 2,
            "name" : "Cone.013",
            "rotation" : [
                -0.016415774822235107,
                -0.9018274545669556,
                0.045052457600831985,
                0.42942753434181213
            ],
            "scale" : [
                0.8897284865379333,
                0.7340602874755859,
                0.7364556193351746
            ],
            "translation" : [
                -3.516705274581909,
                -1.3376762866973877,
                12.299715995788574
            ]
        },
        {
            "mesh" : 2,
            "name" : "Cone.014",
            "rotation" : [
                -0.15809352695941925,
                0.5957089066505432,
                0.00032593999640084803,
                0.7874879240989685
            ],
            "scale" : [
                0.6526985168457031,
                0.6640586256980896,
                0.7108332514762878
            ],
            "translation" : [
                6.4722113609313965,
                -1.0867304801940918,
                14.418196678161621
            ]
        },
        {
            "mesh" : 2,
            "name" : "Cone.015",
            "rotation" : [
                -0.11534636467695236,
                -0.6539176106452942,
                0.03256993368268013,
                0.7470114827156067
            ],
            "scale" : [
                0.6890589594841003,
                0.833091676235199,
                0.6984008550643921
            ],
            "translation" : [
                -14.164875984191895,
                0.31842947006225586,
                17.275192260742188
            ]
        },
        {
            "mesh" : 2,
            "name" : "Cone.208",
            "rotation" : [
                -0.11859340965747833,
                0.3642846345901489,
                -0.039894018322229385,
                0.922843873500824
            ],
            "scale" : [
                0.7771101593971252,
                0.8968998193740845,
                0.8849517107009888
            ],
            "translation" : [
                23.577701568603516,
                0.003937495406717062,
                17.334951400756836
            ]
        }
    ],
    "materials" : [
        {
            "doubleSided" : true,
            "emissiveFactor" : [
                0,
                0,
                0
            ],
            "name" : "Rock no Shine",
            "normalTexture" : {
                "index" : 0,
                "texCoord" : 0
            },
            "pbrMetallicRoughness" : {
                "baseColorTexture" : {
                    "index" : 1,
                    "texCoord" : 0
                },
                "metallicFactor" : 0,
                "roughnessFactor" : 1
            }
        },
        {
            "doubleSided" : true,
            "emissiveFactor" : [
                0,
                0,
                0
            ],
            "name" : "Top ground",
            "normalTexture" : {
                "index" : 2,
                "texCoord" : 0
            },
            "pbrMetallicRoughness" : {
                "baseColorTexture" : {
                    "index" : 3,
                    "texCoord" : 0
                },
                "metallicFactor" : 0,
                "roughnessFactor" : 1
            }
        },
        {
            "doubleSided" : true,
            "emissiveFactor" : [
                0,
                0,
                0
            ],
            "name" : "Tree",
            "normalTexture" : {
                "index" : 4,
                "texCoord" : 0
            },
            "pbrMetallicRoughness" : {
                "baseColorTexture" : {
                    "index" : 5,
                    "texCoord" : 0
                },
                "metallicFactor" : 0,
                "roughnessFactor" : 0
            }
        }
    ],
    "meshes" : [
        {
            "name" : "Cube.002",
            "primitives" : [
                {
                    "attributes" : {
                        "POSITION" : 0,
                        "NORMAL" : 1,
                        "TEXCOORD_0" : 2
                    },
                    "indices" : 3,
                    "material" : 0
                }
            ]
        },
        {
            "name" : "Plane.010",
            "primitives" : [
                {
                    "attributes" : {
                        "POSITION" : 4,
                        "NORMAL" : 5,
                        "TEXCOORD_0" : 6
                    },
                    "indices" : 7,
                    "material" : 1
                }
            ]
        },
        {
            "name" : "Tree",
            "primitives" : [
                {
                    "attributes" : {
                        "POSITION" : 8,
                        "NORMAL" : 9,
                        "TEXCOORD_0" : 10
                    },
                    "indices" : 11,
                    "material" : 2
                }
            ]
        }
    ],
    "textures" : [
        {
            "source" : 0
        },
        {
            "source" : 1
        },
        {
            "source" : 2
        },
        {
            "source" : 3
        },
        {
            "source" : 4
        },
        {
            "source" : 5
        }
    ],
    "images" : [
        {
            "mimeType" : "image/jpeg",
            "name" : "normal",
            "uri" : "textures/normal.jpg"
        },
        {
            "mimeType" : "image/jpeg",
            "name" : "baseColor",
            "uri" : "textures/baseColor.jpg"
        },
        {
            "mimeType" : "image/jpeg",
            "name" : "normal",
            "uri" : "textures/normal-1.jpg"
        },
        {
            "mimeType" : "image/jpeg",
            "name" : "baseColor",
            "uri" : "textures/baseColor-1.jpg"
        },
        {
            "mimeType" : "image/png",
            "name" : "treeNormal",
            "uri" : "textures/treeNormal.png"
        },
        {
            "mimeType" : "image/png",
            "name" : "treeColor",
            "uri" : "textures/treeColor.png"
        }
    ],
    "accessors" : [
        {
            "bufferView" : 0,
            "componentType" : 5126,
            "count" : 649,
            "max" : [
                0.5563063621520996,
                0.8699829578399658,
                0.5536098480224609
            ],
            "min" : [
                -0.5563371777534485,
                -1.1290346384048462,
                -0.5116347670555115
            ],
            "type" : "VEC3"
        },
        {
            "bufferView" : 1,
            "componentType" : 5126,
            "count" : 649,
            "type" : "VEC3"
        },
        {
            "bufferView" : 2,
            "componentType" : 5126,
            "count" : 649,
            "type" : "VEC2"
        },
        {
            "bufferView" : 3,
            "componentType" : 5123,
            "count" : 2730,
            "type" : "SCALAR"
        },
        {
            "bufferView" : 4,
            "componentType" : 5126,
            "count" : 4,
            "max" : [
                32,
                0,
                18
            ],
            "min" : [
                -32,
                0,
                -18
            ],
            "type" : "VEC3"
        },
        {
            "bufferView" : 5,
            "componentType" : 5126,
            "count" : 4,
            "type" : "VEC3"
        },
        {
            "bufferView" : 6,
            "componentType" : 5126,
            "count" : 4,
            "type" : "VEC2"
        },
        {
            "bufferView" : 7,
            "componentType" : 5123,
            "count" : 6,
            "type" : "SCALAR"
        },
        {
            "bufferView" : 8,
            "componentType" : 5126,
            "count" : 2665,
            "max" : [
                4.968358039855957,
                7.678850173950195,
                3.919389486312866
            ],
            "min" : [
                -4.473549842834473,
                -0.29737651348114014,
                -5.097031116485596
            ],
            "type" : "VEC3"
        },
        {
            "bufferView" : 9,
            "componentType" : 5126,
            "count" : 2665,
            "type" : "VEC3"
        },
        {
            "bufferView" : 10,
            "componentType" : 5126,
            "count" : 2665,
            "type" : "VEC2"
        },
        {
            "bufferView" : 11,
            "componentType" : 5123,
            "count" : 6378,
            "type" : "SCALAR"
        }
    ],
    "bufferViews" : [
        {
            "buffer" : 0,
            "byteLength" : 7788,
            "byteOffset" : 0
        },
        {
            "buffer" : 0,
            "byteLength" : 7788,
            "byteOffset" : 7788
        },
        {
            "buffer" : 0,
            "byteLength" : 5192,
            "byteOffset" : 15576
        },
        {
            "buffer" : 0,
            "byteLength" : 5460,
            "byteOffset" : 20768
        },
        {
            "buffer" : 0,
            "byteLength" : 48,
            "byteOffset" : 26228
        },
        {
            "buffer" : 0,
            "byteLength" : 48,
            "byteOffset" : 26276
        },
        {
            "buffer" : 0,
            "byteLength" : 32,
            "byteOffset" : 26324
        },
        {
            "buffer" : 0,
            "byteLength" : 12,
            "byteOffset" : 26356
        },
        {
            "buffer" : 0,
            "byteLength" : 31980,
            "byteOffset" : 26368
        },
        {
            "buffer" : 0,
            "byteLength" : 31980,
            "byteOffset" : 58348
        },
        {
            "buffer" : 0,
            "byteLength" : 21320,
            "byteOffset" : 90328
        },
        {
            "buffer" : 0,
            "byteLength" : 12756,
            "byteOffset" : 111648
        }
    ],
    "buffers" : [
        {
            "byteLength" : 124404,
            "uri" : "top01.bin"
        }
    ]
}
