{
    "asset" : {
        "generator" : "Khronos glTF Blender I/O v1.1.46",
        "version" : "2.0"
    },
    "scene" : 0,
    "scenes" : [
        {
            "name" : "Scene",
            "nodes" : [
                0
            ]
        }
    ],
    "nodes" : [
        {
            "mesh" : 0,
            "name" : "Cube",
            "translation" : [
                2.4636101722717285,
                0.8799957036972046,
                -0.10000000149011612
            ]
        }
    ],
    "materials" : [
        {
            "doubleSided" : true,
            "emissiveFactor" : [
                0,
                0,
                0
            ],
            "name" : "Wood",
            "normalTexture" : {
                "index" : 0,
                "texCoord" : 0
            },
            "pbrMetallicRoughness" : {
                "baseColorFactor": [ 1.000, 1.400, 1.400, 1.0 ],
                "baseColorTexture" : {
                    "index" : 1,
                    "texCoord" : 0
                },
                "metallicFactor" : 0,
                "roughnessFactor" : 0.5
            }
        }
    ],
    "meshes" : [
        {
            "name" : "Cube",
            "primitives" : [
                {
                    "attributes" : {
                        "POSITION" : 0,
                        "NORMAL" : 1,
                        "TEXCOORD_0" : 2
                    },
                    "indices" : 3,
                    "material" : 0
                }
            ]
        }
    ],
    "textures" : [
        {
            "source" : 0
        },
        {
            "source" : 1
        }
    ],
    "images" : [
        {
            "mimeType" : "image/jpeg",
            "name" : "normal",
            "uri" : "textures/wood/normal.jpg"
        },
        {
            "mimeType" : "image/jpeg",
            "name" : "baseColor",
            "uri" : "textures/wood/baseColor.jpg"
        }
    ],
    "accessors" : [
        {
            "bufferView" : 0,
            "componentType" : 5126,
            "count" : 290,
            "max" : [
                0.4499540328979492,
                1.0482609272003174,
                1.44633948802948
            ],
            "min" : [
                -5.550046920776367,
                -0.8809205293655396,
                -0.131830096244812
            ],
            "type" : "VEC3"
        },
        {
            "bufferView" : 1,
            "componentType" : 5126,
            "count" : 290,
            "type" : "VEC3"
        },
        {
            "bufferView" : 2,
            "componentType" : 5126,
            "count" : 290,
            "type" : "VEC2"
        },
        {
            "bufferView" : 3,
            "componentType" : 5123,
            "count" : 600,
            "type" : "SCALAR"
        }
    ],
    "bufferViews" : [
        {
            "buffer" : 0,
            "byteLength" : 3480,
            "byteOffset" : 0
        },
        {
            "buffer" : 0,
            "byteLength" : 3480,
            "byteOffset" : 3480
        },
        {
            "buffer" : 0,
            "byteLength" : 2320,
            "byteOffset" : 6960
        },
        {
            "buffer" : 0,
            "byteLength" : 1200,
            "byteOffset" : 9280
        }
    ],
    "buffers" : [
        {
            "byteLength" : 10480,
            "uri" : "barrier.bin"
        }
    ]
}
