{
  "asset": {
    "generator": "Khronos glTF Blender I/O v1.1.46",
    "version": "2.0"
  },
  "scene": 0,
  "scenes": [
    {
      "name": "Scene",
      "nodes": [
        0,
        1,
        2,
        3,
        4,
        5,
        6,
        7,
        8,
        9,
        10,
        11,
        12,
        13,
        14,
        15,
        16,
        17,
        18,
        19,
        20,
        21,
        22,
        23
      ]
    }
  ],
  "nodes": [
    {
      "mesh": 0,
      "name": "Rock.1986",
      "rotation": [
        0.799882709980011,
        -0.004563415423035622,
        -0.5987100601196289,
        -0.041391756385564804
      ],
      "scale": [
        14.498620986938477,
        14.498614311218262,
        14.498615264892578
      ],
      "translation": [
        -7.570958137512207,
        -1.4741506576538086,
        13.110952377319336
      ]
    },
    {
      "mesh": 0,
      "name": "Rock.1987",
      "rotation": [
        0.8456627726554871,
        0.09355513006448746,
        0.5173738598823547,
        -0.09179465472698212
      ],
      "scale": [
        14.680519104003906,
        14.68051815032959,
        14.680520057678223
      ],
      "translation": [
        8.898233413696289,
        0.6616726517677307,
        13.384466171264648
      ]
    },
    {
      "mesh": 1,
      "name": "Plane.039",
      "rotation": [
        0,
        1,
        0,
        -1.6292068494294654E-07
      ],
      "translation": [
        -17,
        0,
        0
      ]
    },
    {
      "mesh": 0,
      "name": "Rock.1988",
      "rotation": [
        0.799882709980011,
        -0.004563415423035622,
        -0.5987100601196289,
        -0.041391756385564804
      ],
      "scale": [
        14.498620986938477,
        14.498614311218262,
        14.498615264892578
      ],
      "translation": [
        -11.745037078857422,
        -1.474150538444519,
        5.052118301391602
      ]
    },
    {
      "mesh": 0,
      "name": "Rock.1989",
      "rotation": [
        -0.8653592467308044,
        -0.03624869883060455,
        -0.4994191825389862,
        0.02049717679619789
      ],
      "scale": [
        14.498620986938477,
        14.498614311218262,
        14.498615264892578
      ],
      "translation": [
        -11.2664213180542,
        -1.474150538444519,
        -0.4632682800292969
      ]
    },
    {
      "mesh": 0,
      "name": "Rock.1990",
      "rotation": [
        0.9845588803291321,
        0.014736760407686234,
        -0.17002904415130615,
        -0.03894779086112976
      ],
      "scale": [
        14.498620986938477,
        14.498614311218262,
        14.498615264892578
      ],
      "translation": [
        -10.687840461730957,
        -1.474150538444519,
        -8.760074615478516
      ]
    },
    {
      "mesh": 0,
      "name": "Rock.1991",
      "rotation": [
        -0.5381115674972534,
        0.01883387379348278,
        0.8418444395065308,
        0.03714011237025261
      ],
      "scale": [
        14.498620986938477,
        14.498614311218262,
        14.498615264892578
      ],
      "translation": [
        -6.836675643920898,
        -1.474150538444519,
        -15.16952133178711
      ]
    },
    {
      "mesh": 0,
      "name": "Rock.1992",
      "rotation": [
        -0.6463057398796082,
        0.013674851506948471,
        0.76194167137146,
        0.03933321312069893
      ],
      "scale": [
        14.498620986938477,
        14.498614311218262,
        14.498615264892578
      ],
      "translation": [
        0.2889060974121094,
        -1.474150538444519,
        -15.338310241699219
      ]
    },
    {
      "mesh": 0,
      "name": "Rock.1993",
      "rotation": [
        -0.6463057398796082,
        0.013674851506948471,
        0.76194167137146,
        0.03933321312069893
      ],
      "scale": [
        14.498620986938477,
        14.498614311218262,
        14.498615264892578
      ],
      "translation": [
        8.188690185546875,
        -1.474150538444519,
        -14.81139850616455
      ]
    },
    {
      "mesh": 0,
      "name": "Rock.1994",
      "rotation": [
        -0.9986063838005066,
        -0.02230306901037693,
        -0.032431602478027344,
        0.035166408866643906
      ],
      "scale": [
        14.498620986938477,
        14.498614311218262,
        14.498615264892578
      ],
      "translation": [
        12.878589630126953,
        -1.4741504192352295,
        -7.75726842880249
      ]
    },
    {
      "mesh": 0,
      "name": "Rock.1995",
      "rotation": [
        -0.9986501932144165,
        -0.022254494950175285,
        -0.03105280175805092,
        0.0351971760392189
      ],
      "scale": [
        14.498620986938477,
        14.498614311218262,
        14.498615264892578
      ],
      "translation": [
        10.76146125793457,
        -1.474150538444519,
        -0.5922273993492126
      ]
    },
    {
      "mesh": 0,
      "name": "Rock.1996",
      "rotation": [
        -0.9984691739082336,
        -0.022443022578954697,
        -0.03641057014465332,
        0.03507726639509201
      ],
      "scale": [
        14.498620986938477,
        14.498614311218262,
        14.498615264892578
      ],
      "translation": [
        8.281909942626953,
        -1.4741506576538086,
        7.475168228149414
      ]
    },
    {
      "mesh": 0,
      "name": "Rock.1997",
      "rotation": [
        0.9214805960655212,
        -0.1950761377811432,
        -0.3079080879688263,
        -0.13420744240283966
      ],
      "scale": [
        14.498620986938477,
        14.498614311218262,
        14.498615264892578
      ],
      "translation": [
        -13.847976684570312,
        14.11976432800293,
        4.8904571533203125
      ]
    },
    {
      "mesh": 0,
      "name": "Rock.1998",
      "rotation": [
        -0.8493866324424744,
        -0.14582164585590363,
        -0.45605406165122986,
        -0.22202132642269135
      ],
      "scale": [
        14.498620986938477,
        14.498614311218262,
        14.498615264892578
      ],
      "translation": [
        -14.323568344116211,
        13.916574478149414,
        0.12911224365234375
      ]
    },
    {
      "mesh": 0,
      "name": "Rock.1999",
      "rotation": [
        0.997737467288971,
        -0.0516272634267807,
        0.042338546365499496,
        -0.007893720641732216
      ],
      "scale": [
        14.498620986938477,
        14.498614311218262,
        14.498615264892578
      ],
      "translation": [
        -12.42905044555664,
        7.90955924987793,
        -11.570541381835938
      ]
    },
    {
      "mesh": 0,
      "name": "Rock.2000",
      "rotation": [
        -0.6946366429328918,
        0.10963507741689682,
        0.6662005186080933,
        0.24826855957508087
      ],
      "scale": [
        14.498620986938477,
        14.498614311218262,
        14.498615264892578
      ],
      "translation": [
        -2.8789119720458984,
        11.882776260375977,
        -17.663734436035156
      ]
    },
    {
      "mesh": 0,
      "name": "Rock.2001",
      "rotation": [
        -0.45677849650382996,
        -0.6615841388702393,
        0.5380541086196899,
        0.2532944083213806
      ],
      "scale": [
        14.498620986938477,
        14.498614311218262,
        14.498615264892578
      ],
      "translation": [
        -2.8925418853759766,
        25.20725440979004,
        -10.7503662109375
      ]
    },
    {
      "mesh": 0,
      "name": "Rock.2002",
      "rotation": [
        0.7595461010932922,
        -0.6400026679039001,
        -0.005349783226847649,
        0.11601141095161438
      ],
      "scale": [
        14.498620986938477,
        14.498614311218262,
        14.498615264892578
      ],
      "translation": [
        0.004118978977203369,
        19.051156997680664,
        -18.181354522705078
      ]
    },
    {
      "mesh": 0,
      "name": "Rock.2003",
      "rotation": [
        -0.8645771145820618,
        -0.2697666585445404,
        0.2550722658634186,
        0.3386312425136566
      ],
      "scale": [
        14.498620986938477,
        14.498614311218262,
        14.498615264892578
      ],
      "translation": [
        13.84469985961914,
        17.890300750732422,
        -13.086811065673828
      ]
    },
    {
      "mesh": 0,
      "name": "Rock.2004",
      "rotation": [
        -0.8826018571853638,
        -0.21523308753967285,
        0.038369253277778625,
        0.41619348526000977
      ],
      "scale": [
        14.498620986938477,
        14.498614311218262,
        14.498615264892578
      ],
      "translation": [
        13.405715942382812,
        12.940828323364258,
        -0.06951600313186646
      ]
    },
    {
      "mesh": 0,
      "name": "Rock.2005",
      "rotation": [
        -0.6323660016059875,
        -0.2719350755214691,
        -0.3864676356315613,
        -0.6138471364974976
      ],
      "scale": [
        18.612672805786133,
        18.61266326904297,
        18.61266326904297
      ],
      "translation": [
        2.8043289184570312,
        27.3747501373291,
        2.7476577758789062
      ]
    },
    {
      "mesh": 0,
      "name": "Rock.660",
      "rotation": [
        -0.8764275908470154,
        -0.25554999709129333,
        0.20778530836105347,
        0.35127583146095276
      ],
      "scale": [
        14.498620986938477,
        14.498614311218262,
        14.498615264892578
      ],
      "translation": [
        12.113048553466797,
        16.588661193847656,
        6.963171005249023
      ]
    },
    {
      "mesh": 0,
      "name": "Rock.751",
      "rotation": [
        0.8198037147521973,
        -0.2658817768096924,
        -0.5062922239303589,
        0.029955388978123665
      ],
      "scale": [
        14.498620986938477,
        14.498614311218262,
        14.498615264892578
      ],
      "translation": [
        -11.085975646972656,
        14.493245124816895,
        13.446293830871582
      ]
    },
    {
      "mesh": 0,
      "name": "Rock.752",
      "rotation": [
        -0.7137855887413025,
        -0.04462128132581711,
        0.6746704578399658,
        0.18259069323539734
      ],
      "scale": [
        14.498620986938477,
        14.498614311218262,
        14.498615264892578
      ],
      "translation": [
        6.95751953125,
        11.873454093933105,
        -17.76345443725586
      ]
    }
  ],
  "materials": [
    {
      "doubleSided": true,
      "emissiveFactor": [
        0,
        0,
        0
      ],
      "name": "Rock no Shine",
      "normalTexture": {
        "index": 0,
        "texCoord": 0
      },
      "pbrMetallicRoughness": {
        "baseColorTexture": {
          "index": 1,
          "texCoord": 0
        },
        "metallicFactor": 0,
        "roughnessFactor": 1
      }
    }
  ],
  "meshes": [
    {
      "name": "Rock",
      "primitives": [
        {
          "attributes": {
            "POSITION": 0,
            "NORMAL": 1,
            "TEXCOORD_0": 2
          },
          "indices": 3,
          "material": 0
        }
      ]
    },
    {
      "name": "Plane.033",
      "primitives": [
        {
          "attributes": {
            "POSITION": 4,
            "NORMAL": 5,
            "TEXCOORD_0": 6
          },
          "indices": 7,
          "material": 0
        }
      ]
    }
  ],
  "textures": [
    {
      "source": 0
    },
    {
      "source": 1
    }
  ],
  "images": [
    {
      "mimeType": "image/jpeg",
      "name": "rocknormal",
      "uri": "textures/rock/normal.jpg"
    },
    {
      "mimeType": "image/jpeg",
      "name": "rockbaseColor",
      "uri": "textures/rock/baseColor.jpg"
    }
  ],
  "accessors": [
    {
      "bufferView": 0,
      "componentType": 5126,
      "count": 649,
      "max": [
        0.5563063621520996,
        0.8699829578399658,
        0.5536098480224609
      ],
      "min": [
        -0.5563371777534485,
        -1.1290346384048462,
        -0.5116347670555115
      ],
      "type": "VEC3"
    },
    {
      "bufferView": 1,
      "componentType": 5126,
      "count": 649,
      "type": "VEC3"
    },
    {
      "bufferView": 2,
      "componentType": 5126,
      "count": 649,
      "type": "VEC2"
    },
    {
      "bufferView": 3,
      "componentType": 5123,
      "count": 2730,
      "type": "SCALAR"
    },
    {
      "bufferView": 4,
      "componentType": 5126,
      "count": 4,
      "max": [
        3.0432682037353516,
        0,
        18
      ],
      "min": [
        -32,
        0,
        -18.000009536743164
      ],
      "type": "VEC3"
    },
    {
      "bufferView": 5,
      "componentType": 5126,
      "count": 4,
      "type": "VEC3"
    },
    {
      "bufferView": 6,
      "componentType": 5126,
      "count": 4,
      "type": "VEC2"
    },
    {
      "bufferView": 7,
      "componentType": 5123,
      "count": 6,
      "type": "SCALAR"
    }
  ],
  "bufferViews": [
    {
      "buffer": 0,
      "byteLength": 7788,
      "byteOffset": 0
    },
    {
      "buffer": 0,
      "byteLength": 7788,
      "byteOffset": 7788
    },
    {
      "buffer": 0,
      "byteLength": 5192,
      "byteOffset": 15576
    },
    {
      "buffer": 0,
      "byteLength": 5460,
      "byteOffset": 20768
    },
    {
      "buffer": 0,
      "byteLength": 48,
      "byteOffset": 26228
    },
    {
      "buffer": 0,
      "byteLength": 48,
      "byteOffset": 26276
    },
    {
      "buffer": 0,
      "byteLength": 32,
      "byteOffset": 26324
    },
    {
      "buffer": 0,
      "byteLength": 12,
      "byteOffset": 26356
    }
  ],
  "buffers": [
    {
      "byteLength": 26368,
      "uri": "canyon.cave.bin"
    }
  ]
}