# Blender v2.79 (sub 0) OBJ File: ''
# www.blender.org
mtllib t.mtl
o Cube
v -0.772789 0.148235 1.598435
v -0.772789 0.148235 3.598435
v -2.772789 0.148235 3.598435
v -2.772789 0.148235 1.598435
v -0.772788 2.148235 1.598435
v -0.772789 2.148235 3.598435
v -2.772789 2.148235 3.598434
v -2.772789 2.148235 1.598435
vn 0.0000 -1.0000 -0.0000
vn 0.0000 1.0000 0.0000
vn 1.0000 0.0000 0.0000
vn -0.0000 -0.0000 1.0000
vn -1.0000 -0.0000 -0.0000
vn 0.0000 0.0000 -1.0000
usemtl Material
s off
f 1//1 2//1 3//1 4//1
f 5//2 8//2 7//2 6//2
f 1//3 5//3 6//3 2//3
f 2//4 6//4 7//4 3//4
f 3//5 7//5 8//5 4//5
f 5//6 1//6 4//6 8//6
o Cube.001
v 0.915731 -0.680567 -1.202936
v 0.915731 -0.680567 0.797064
v -1.084269 -0.680567 0.797064
v -1.084268 -0.680567 -1.202936
v 0.915732 1.319433 -1.202935
v 0.915731 1.319433 0.797065
v -1.084269 1.319433 0.797064
v -1.084268 1.319433 -1.202936
vn 0.0000 -1.0000 -0.0000
vn 0.0000 1.0000 0.0000
vn 1.0000 0.0000 0.0000
vn -0.0000 -0.0000 1.0000
vn -1.0000 -0.0000 -0.0000
vn 0.0000 0.0000 -1.0000
usemtl Material.001
s off
f 9//7 10//7 11//7 12//7
f 13//8 16//8 15//8 14//8
f 9//9 13//9 14//9 10//9
f 10//10 14//10 15//10 11//10
f 11//11 15//11 16//11 12//11
f 13//12 9//12 12//12 16//12
