{
  "asset": {
    "generator": "Khronos glTF Blender I/O v1.1.46",
    "version": "2.0"
  },
  "scene": 0,
  "scenes": [
    {
      "name": "Scene",
      "nodes": [
        0,
        1,
        2,
        3,
        4,
        5,
        6,
        7,
        8,
        9,
        10,
        11,
        12,
        13,
        14,
        15,
        16,
        17,
        18,
        19,
        20
      ]
    }
  ],
  "nodes": [
    {
      "mesh": 0,
      "name": "Rock.1986",
      "rotation": [
        0.799882709980011,
        -0.004563415423035622,
        -0.5987100601196289,
        -0.041391756385564804
      ],
      "scale": [
        14.498620986938477,
        14.498614311218262,
        14.498615264892578
      ],
      "translation": [
        9.429041862487793,
        -1.4741506576538086,
        13.110952377319336
      ]
    },
    {
      "mesh": 0,
      "name": "Rock.1987",
      "rotation": [
        0.8456627726554871,
        0.09355513006448746,
        0.5173738598823547,
        -0.09179465472698212
      ],
      "scale": [
        14.680519104003906,
        14.68051815032959,
        14.680520057678223
      ],
      "translation": [
        25.89823341369629,
        0.6616726517677307,
        13.384466171264648
      ]
    },
    {
      "mesh": 1,
      "name": "Plane.039",
      "rotation": [
        0,
        1,
        0,
        -1.6292068494294654E-07
      ]
    },
    {
      "mesh": 0,
      "name": "Rock.1988",
      "rotation": [
        0.799882709980011,
        -0.004563415423035622,
        -0.5987100601196289,
        -0.041391756385564804
      ],
      "scale": [
        14.498620986938477,
        14.498614311218262,
        14.498615264892578
      ],
      "translation": [
        5.254962921142578,
        -1.474150538444519,
        5.052118301391602
      ]
    },
    {
      "mesh": 0,
      "name": "Rock.1989",
      "rotation": [
        -0.8653592467308044,
        -0.03624869883060455,
        -0.4994191825389862,
        0.02049717679619789
      ],
      "scale": [
        14.498620986938477,
        14.498614311218262,
        14.498615264892578
      ],
      "translation": [
        5.733578681945801,
        -1.474150538444519,
        -0.4632682800292969
      ]
    },
    {
      "mesh": 0,
      "name": "Rock.1990",
      "rotation": [
        0.9845588803291321,
        0.014736760407686234,
        -0.17002904415130615,
        -0.03894779086112976
      ],
      "scale": [
        14.498620986938477,
        14.498614311218262,
        14.498615264892578
      ],
      "translation": [
        6.312159538269043,
        -1.474150538444519,
        -8.760074615478516
      ]
    },
    {
      "mesh": 0,
      "name": "Rock.1991",
      "rotation": [
        -0.5381115674972534,
        0.01883387379348278,
        0.8418444395065308,
        0.03714011237025261
      ],
      "scale": [
        14.498620986938477,
        14.498614311218262,
        14.498615264892578
      ],
      "translation": [
        10.163324356079102,
        -1.474150538444519,
        -15.16952133178711
      ]
    },
    {
      "mesh": 0,
      "name": "Rock.1992",
      "rotation": [
        -0.6463057398796082,
        0.013674851506948471,
        0.76194167137146,
        0.03933321312069893
      ],
      "scale": [
        14.498620986938477,
        14.498614311218262,
        14.498615264892578
      ],
      "translation": [
        17.28890609741211,
        -1.474150538444519,
        -15.338310241699219
      ]
    },
    {
      "mesh": 0,
      "name": "Rock.1993",
      "rotation": [
        -0.6463057398796082,
        0.013674851506948471,
        0.76194167137146,
        0.03933321312069893
      ],
      "scale": [
        14.498620986938477,
        14.498614311218262,
        14.498615264892578
      ],
      "translation": [
        25.188690185546875,
        -1.474150538444519,
        -15.338310241699219
      ]
    },
    {
      "mesh": 0,
      "name": "Rock.1994",
      "rotation": [
        -0.9982744455337524,
        -0.01964506320655346,
        0.04140576720237732,
        0.036717500537633896
      ],
      "scale": [
        14.498620986938477,
        14.498614311218262,
        14.498615264892578
      ],
      "translation": [
        30.7730770111084,
        -1.474150538444519,
        -10.057273864746094
      ]
    },
    {
      "mesh": 0,
      "name": "Rock.1995",
      "rotation": [
        -0.9990736842155457,
        -0.021538954228162766,
        -0.010873302817344666,
        0.03563954308629036
      ],
      "scale": [
        14.498620986938477,
        14.498614311218262,
        14.498615264892578
      ],
      "translation": [
        29.237823486328125,
        -1.474150538444519,
        -1.7424850463867188
      ]
    },
    {
      "mesh": 0,
      "name": "Rock.1996",
      "rotation": [
        -0.9908275008201599,
        -0.025589633733034134,
        -0.12855812907218933,
        0.03285231068730354
      ],
      "scale": [
        14.498620986938477,
        14.498614311218262,
        14.498615264892578
      ],
      "translation": [
        25.82182502746582,
        -1.4741506576538086,
        7.507781982421875
      ]
    },
    {
      "mesh": 0,
      "name": "Rock.1997",
      "rotation": [
        0.8836079835891724,
        -0.15052548050880432,
        -0.3802940249443054,
        -0.22793783247470856
      ],
      "scale": [
        14.498620986938477,
        14.498614311218262,
        14.498615264892578
      ],
      "translation": [
        4.653738021850586,
        14.11976432800293,
        4.8904571533203125
      ]
    },
    {
      "mesh": 0,
      "name": "Rock.1998",
      "rotation": [
        -0.7151340246200562,
        0.19508130848407745,
        -0.6687566041946411,
        -0.05737144500017166
      ],
      "scale": [
        14.498620986938477,
        14.498614311218262,
        14.498615264892578
      ],
      "translation": [
        7.47098445892334,
        13.916574478149414,
        0.12911224365234375
      ]
    },
    {
      "mesh": 0,
      "name": "Rock.1999",
      "rotation": [
        0.9686102867126465,
        -0.20120863616466522,
        0.06572450697422028,
        -0.13034440577030182
      ],
      "scale": [
        14.498620986938477,
        14.498614311218262,
        14.498615264892578
      ],
      "translation": [
        11.597111701965332,
        13.677817344665527,
        -7.088214874267578
      ]
    },
    {
      "mesh": 0,
      "name": "Rock.2000",
      "rotation": [
        -0.6866049766540527,
        0.0889265388250351,
        0.6692794561386108,
        0.2696866989135742
      ],
      "scale": [
        14.498620986938477,
        14.498614311218262,
        14.498615264892578
      ],
      "translation": [
        14.121088027954102,
        11.882776260375977,
        -13.175819396972656
      ]
    },
    {
      "mesh": 0,
      "name": "Rock.2001",
      "rotation": [
        -0.4029403626918793,
        -0.3774723410606384,
        0.8325244784355164,
        0.045354899019002914
      ],
      "scale": [
        14.498620986938477,
        14.498614311218262,
        14.498615264892578
      ],
      "translation": [
        12.411109924316406,
        12.17703914642334,
        -8.821319580078125
      ]
    },
    {
      "mesh": 0,
      "name": "Rock.2002",
      "rotation": [
        -0.4029403626918793,
        -0.3774723410606384,
        0.8325244784355164,
        0.045354899019002914
      ],
      "scale": [
        14.498620986938477,
        14.498614311218262,
        14.498615264892578
      ],
      "translation": [
        18.607528686523438,
        16.72921371459961,
        -10.634796142578125
      ]
    },
    {
      "mesh": 0,
      "name": "Rock.2003",
      "rotation": [
        -0.8645771145820618,
        -0.2697666585445404,
        0.2550722658634186,
        0.3386312425136566
      ],
      "scale": [
        14.498620986938477,
        14.498614311218262,
        14.498615264892578
      ],
      "translation": [
        25.834789276123047,
        17.56932258605957,
        -8.157779693603516
      ]
    },
    {
      "mesh": 0,
      "name": "Rock.2004",
      "rotation": [
        -0.8764275908470154,
        -0.25554999709129333,
        0.20778530836105347,
        0.35127583146095276
      ],
      "scale": [
        14.498620986938477,
        14.498614311218262,
        14.498615264892578
      ],
      "translation": [
        29.113048553466797,
        12.940828323364258,
        -1.886993408203125
      ]
    },
    {
      "mesh": 0,
      "name": "Rock.2005",
      "rotation": [
        -0.3949851989746094,
        -0.5637571215629578,
        -0.6514520645141602,
        -0.3190230429172516
      ],
      "scale": [
        18.612672805786133,
        18.61266326904297,
        18.61266326904297
      ],
      "translation": [
        19.80432891845703,
        22.739458084106445,
        2.7476577758789062
      ]
    }
  ],
  "materials": [
    {
      "doubleSided": true,
      "emissiveFactor": [
        0,
        0,
        0
      ],
      "name": "Rock no Shine",
      "normalTexture": {
        "index": 0,
        "texCoord": 0
      },
      "pbrMetallicRoughness": {
        "baseColorTexture": {
          "index": 1,
          "texCoord": 0
        },
        "metallicFactor": 0,
        "roughnessFactor": 1
      }
    }
  ],
  "meshes": [
    {
      "name": "Rock",
      "primitives": [
        {
          "attributes": {
            "POSITION": 0,
            "NORMAL": 1,
            "TEXCOORD_0": 2
          },
          "indices": 3,
          "material": 0
        }
      ]
    },
    {
      "name": "Plane.033",
      "primitives": [
        {
          "attributes": {
            "POSITION": 4,
            "NORMAL": 5,
            "TEXCOORD_0": 6
          },
          "indices": 7,
          "material": 0
        }
      ]
    }
  ],
  "textures": [
    {
      "source": 0
    },
    {
      "source": 1
    }
  ],
  "images": [
    {
      "mimeType": "image/jpeg",
      "name": "rocknormal",
      "uri": "textures/rock/normal.jpg"
    },
    {
      "mimeType": "image/jpeg",
      "name": "rockbaseColor",
      "uri": "textures/rock/baseColor.jpg"
    }
  ],
  "accessors": [
    {
      "bufferView": 0,
      "componentType": 5126,
      "count": 649,
      "max": [
        0.5563063621520996,
        0.8699829578399658,
        0.5536098480224609
      ],
      "min": [
        -0.5563371777534485,
        -1.1290346384048462,
        -0.5116347670555115
      ],
      "type": "VEC3"
    },
    {
      "bufferView": 1,
      "componentType": 5126,
      "count": 649,
      "type": "VEC3"
    },
    {
      "bufferView": 2,
      "componentType": 5126,
      "count": 649,
      "type": "VEC2"
    },
    {
      "bufferView": 3,
      "componentType": 5123,
      "count": 2730,
      "type": "SCALAR"
    },
    {
      "bufferView": 4,
      "componentType": 5126,
      "count": 4,
      "max": [
        3.0432682037353516,
        0,
        18
      ],
      "min": [
        -32,
        0,
        -18.000009536743164
      ],
      "type": "VEC3"
    },
    {
      "bufferView": 5,
      "componentType": 5126,
      "count": 4,
      "type": "VEC3"
    },
    {
      "bufferView": 6,
      "componentType": 5126,
      "count": 4,
      "type": "VEC2"
    },
    {
      "bufferView": 7,
      "componentType": 5123,
      "count": 6,
      "type": "SCALAR"
    }
  ],
  "bufferViews": [
    {
      "buffer": 0,
      "byteLength": 7788,
      "byteOffset": 0
    },
    {
      "buffer": 0,
      "byteLength": 7788,
      "byteOffset": 7788
    },
    {
      "buffer": 0,
      "byteLength": 5192,
      "byteOffset": 15576
    },
    {
      "buffer": 0,
      "byteLength": 5460,
      "byteOffset": 20768
    },
    {
      "buffer": 0,
      "byteLength": 48,
      "byteOffset": 26228
    },
    {
      "buffer": 0,
      "byteLength": 48,
      "byteOffset": 26276
    },
    {
      "buffer": 0,
      "byteLength": 32,
      "byteOffset": 26324
    },
    {
      "buffer": 0,
      "byteLength": 12,
      "byteOffset": 26356
    }
  ],
  "buffers": [
    {
      "byteLength": 26368,
      "uri": "canyon04.a.bin"
    }
  ]
}