{
    "asset" : {
        "generator" : "Khronos glTF Blender I/O v1.1.46",
        "version" : "2.0"
    },
    "scene" : 0,
    "scenes" : [
        {
            "name" : "Scene",
            "nodes" : [
                0,
                1,
                2,
                3,
                4,
                5,
                6,
                7,
                8,
                9,
                10,
                11,
                12,
                13,
                14,
                15,
                16,
                17,
                18,
                19,
                20,
                21,
                22,
                23,
                24
            ]
        }
    ],
    "nodes" : [
        {
            "mesh" : 0,
            "name" : "Plane.029"
        },
        {
            "mesh" : 1,
            "name" : "Rock.1167",
            "rotation" : [
                -0.8921272158622742,
                -0.09436705708503723,
                -0.441257119178772,
                -0.022271689027547836
            ],
            "scale" : [
                19.913066864013672,
                19.913061141967773,
                19.913063049316406
            ],
            "translation" : [
                -17.405975341796875,
                -16.790489196777344,
                10.968605995178223
            ]
        },
        {
            "mesh" : 1,
            "name" : "Rock.1168",
            "rotation" : [
                0.641573965549469,
                0.06823930144309998,
                0.7611239552497864,
                0.06645981967449188
            ],
            "scale" : [
                19.765369415283203,
                19.765369415283203,
                19.765361785888672
            ],
            "translation" : [
                -31.103927612304688,
                -17.472871780395508,
                12.489792823791504
            ]
        },
        {
            "mesh" : 1,
            "name" : "Rock.1169",
            "rotation" : [
                -0.8531500101089478,
                -0.05037051811814308,
                -0.5190845131874084,
                -0.012211848981678486
            ],
            "scale" : [
                19.021286010742188,
                19.021284103393555,
                19.021286010742188
            ],
            "translation" : [
                -4.9749908447265625,
                -15.506359100341797,
                11.094059944152832
            ]
        },
        {
            "mesh" : 1,
            "name" : "Rock.1170",
            "rotation" : [
                0.36411964893341064,
                0.06717174500226974,
                0.9289267063140869,
                0.00017707592633087188
            ],
            "scale" : [
                19.72231674194336,
                19.722309112548828,
                19.722312927246094
            ],
            "translation" : [
                3.3590545654296875,
                -18.385875701904297,
                8.75627326965332
            ]
        },
        {
            "mesh" : 1,
            "name" : "Rock.1171",
            "rotation" : [
                -0.9636958241462708,
                -0.12220743298530579,
                -0.23739276826381683,
                -0.0006447886698879302
            ],
            "scale" : [
                21.183332443237305,
                21.183326721191406,
                21.18332862854004
            ],
            "translation" : [
                24.240859985351562,
                -20.00629997253418,
                10.628032684326172
            ]
        },
        {
            "mesh" : 1,
            "name" : "Rock.1172",
            "rotation" : [
                -0.9928683638572693,
                -0.012825495563447475,
                -0.11452785134315491,
                0.03051617182791233
            ],
            "scale" : [
                20.29906463623047,
                20.299060821533203,
                20.29905891418457
            ],
            "translation" : [
                13.458450317382812,
                -18.85970115661621,
                8.164116859436035
            ]
        },
        {
            "mesh" : 1,
            "name" : "Rock.1173",
            "rotation" : [
                0.6253402233123779,
                -0.01843436062335968,
                0.7760873436927795,
                0.07936133444309235
            ],
            "scale" : [
                20.05402374267578,
                18.888071060180664,
                18.230390548706055
            ],
            "translation" : [
                25.018325805664062,
                -16.923498153686523,
                9.93152141571045
            ]
        },
        {
            "mesh" : 1,
            "name" : "Rock.1174",
            "rotation" : [
                -0.3665769100189209,
                0.1116040050983429,
                -0.5428583025932312,
                -0.7473090291023254
            ],
            "scale" : [
                4.499429225921631,
                4.4994282722473145,
                4.499429225921631
            ],
            "translation" : [
                16.228988647460938,
                -2.3348636627197266,
                9.159753799438477
            ]
        },
        {
            "mesh" : 1,
            "name" : "Rock.1175",
            "rotation" : [
                0.07152733206748962,
                0.5684600472450256,
                -0.6511203050613403,
                -0.49777448177337646
            ],
            "scale" : [
                4.499429225921631,
                4.4994282722473145,
                4.499429225921631
            ],
            "translation" : [
                18.04034423828125,
                -2.3348636627197266,
                9.491588592529297
            ]
        },
        {
            "mesh" : 1,
            "name" : "Rock.1176",
            "rotation" : [
                -0.20724627375602722,
                0.10372311621904373,
                -0.7792975902557373,
                -0.5822253227233887
            ],
            "scale" : [
                4.499429225921631,
                4.4994282722473145,
                4.499429225921631
            ],
            "translation" : [
                23.864227294921875,
                -1.8398380279541016,
                10.747955322265625
            ]
        },
        {
            "mesh" : 1,
            "name" : "Rock.1177",
            "rotation" : [
                -0.19366005063056946,
                0.1462230533361435,
                -0.7530787587165833,
                -0.6115451455116272
            ],
            "scale" : [
                4.499429225921631,
                4.4994282722473145,
                4.499429225921631
            ],
            "translation" : [
                28.09344482421875,
                -1.8899669647216797,
                10.969675064086914
            ]
        },
        {
            "mesh" : 1,
            "name" : "Rock.1178",
            "rotation" : [
                -0.39665645360946655,
                -0.045517925173044205,
                -0.6820816397666931,
                -0.6126635670661926
            ],
            "scale" : [
                4.499429225921631,
                4.4994282722473145,
                4.499429225921631
            ],
            "translation" : [
                12.446426391601562,
                -2.1241073608398438,
                10.903005599975586
            ]
        },
        {
            "mesh" : 1,
            "name" : "Rock.1179",
            "rotation" : [
                -0.2939044237136841,
                0.04351331293582916,
                -0.7322512269020081,
                -0.6128092408180237
            ],
            "scale" : [
                4.499429225921631,
                4.4994282722473145,
                4.499429225921631
            ],
            "translation" : [
                6.4519500732421875,
                -2.1241073608398438,
                9.59041976928711
            ]
        },
        {
            "mesh" : 1,
            "name" : "Rock.1180",
            "rotation" : [
                -0.16794507205486298,
                0.1448899209499359,
                -0.770951509475708,
                -0.5970221757888794
            ],
            "scale" : [
                4.499429225921631,
                4.4994282722473145,
                4.499429225921631
            ],
            "translation" : [
                8.940216064453125,
                -2.1241073608398438,
                11.628759384155273
            ]
        },
        {
            "mesh" : 1,
            "name" : "Rock.1181",
            "rotation" : [
                -0.2939044237136841,
                0.04351331293582916,
                -0.7322512269020081,
                -0.6128092408180237
            ],
            "scale" : [
                4.499429225921631,
                4.4994282722473145,
                4.499429225921631
            ],
            "translation" : [
                -3.4325408935546875,
                -2.094015121459961,
                9.583772659301758
            ]
        },
        {
            "mesh" : 1,
            "name" : "Rock.1182",
            "rotation" : [
                -0.2939044237136841,
                0.04351331293582916,
                -0.7322512269020081,
                -0.6128092408180237
            ],
            "scale" : [
                4.499429225921631,
                4.4994282722473145,
                4.499429225921631
            ],
            "translation" : [
                -14.486114501953125,
                -2.094015121459961,
                9.583772659301758
            ]
        },
        {
            "mesh" : 1,
            "name" : "Rock.1183",
            "rotation" : [
                -0.2939044237136841,
                0.04351331293582916,
                -0.7322512269020081,
                -0.6128092408180237
            ],
            "scale" : [
                4.499429225921631,
                4.4994282722473145,
                4.499429225921631
            ],
            "translation" : [
                -22.436614990234375,
                -2.094015121459961,
                9.583772659301758
            ]
        },
        {
            "mesh" : 1,
            "name" : "Rock.1184",
            "rotation" : [
                -0.08225885778665543,
                0.20958185195922852,
                -0.7847325205802917,
                -0.5774980187416077
            ],
            "scale" : [
                4.499429225921631,
                4.4994282722473145,
                4.499429225921631
            ],
            "translation" : [
                -11.21441650390625,
                -2.094015121459961,
                10.011825561523438
            ]
        },
        {
            "mesh" : 1,
            "name" : "Rock.1185",
            "rotation" : [
                -0.1919696033000946,
                0.12615101039409637,
                -0.7653231024742126,
                -0.6012608408927917
            ],
            "scale" : [
                4.499429225921631,
                4.4994282722473145,
                4.499429225921631
            ],
            "translation" : [
                -5.647430419921875,
                -2.6466064453125,
                10.70846176147461
            ]
        },
        {
            "mesh" : 1,
            "name" : "Rock.1186",
            "rotation" : [
                -0.13585469126701355,
                0.16950446367263794,
                -0.7772484421730042,
                -0.5905055403709412
            ],
            "scale" : [
                4.499429225921631,
                4.4994282722473145,
                4.499429225921631
            ],
            "translation" : [
                -1.36212158203125,
                -2.094015121459961,
                11.445995330810547
            ]
        },
        {
            "mesh" : 1,
            "name" : "Rock.1187",
            "rotation" : [
                -0.15150895714759827,
                0.15755581855773926,
                -0.7743492126464844,
                -0.5938052535057068
            ],
            "scale" : [
                4.499429225921631,
                4.4994282722473145,
                4.499429225921631
            ],
            "translation" : [
                2.620452880859375,
                -2.094015121459961,
                11.174921035766602
            ]
        },
        {
            "mesh" : 1,
            "name" : "Rock.1188",
            "rotation" : [
                -0.20724627375602722,
                0.10372311621904373,
                -0.7792975902557373,
                -0.5822253227233887
            ],
            "scale" : [
                4.499429225921631,
                4.4994282722473145,
                4.499429225921631
            ],
            "translation" : [
                24.623214721679688,
                -2.258514404296875,
                8.80626106262207
            ]
        },
        {
            "mesh" : 1,
            "name" : "Rock.1189",
            "rotation" : [
                -0.11614451557397842,
                0.18439173698425293,
                -0.780437171459198,
                -0.5860275626182556
            ],
            "scale" : [
                4.499429225921631,
                4.4994282722473145,
                4.499429225921631
            ],
            "translation" : [
                -28.8011474609375,
                -3.156106948852539,
                9.583772659301758
            ]
        },
        {
            "mesh" : 2,
            "name" : "Rock.1190",
            "rotation" : [
                -0.24732854962348938,
                0.10731144994497299,
                -0.7092911005020142,
                -0.6513210535049438
            ],
            "scale" : [
                4.499429225921631,
                4.4994282722473145,
                4.499429225921631
            ],
            "translation" : [
                20.37542724609375,
                -2.217365264892578,
                10.648069381713867
            ]
        }
    ],
    "materials" : [
        {
            "doubleSided" : true,
            "emissiveFactor" : [
                0,
                0,
                0
            ],
            "name" : "Forest_Ground",
            "normalTexture" : {
                "index" : 0,
                "texCoord" : 0
            },
            "pbrMetallicRoughness" : {
                "baseColorTexture" : {
                    "index" : 1,
                    "texCoord" : 0
                },
                "metallicFactor" : 0,
                "roughnessFactor" : 1
            }
        },
        {
            "doubleSided" : true,
            "emissiveFactor" : [
                0,
                0,
                0
            ],
            "name" : "Rock no Shine",
            "normalTexture" : {
                "index" : 2,
                "texCoord" : 0
            },
            "pbrMetallicRoughness" : {
                "baseColorTexture" : {
                    "index" : 3,
                    "texCoord" : 0
                },
                "metallicFactor" : 0,
                "roughnessFactor" : 1
            }
        }
    ],
    "meshes" : [
        {
            "name" : "Top5.Ground",
            "primitives" : [
                {
                    "attributes" : {
                        "POSITION" : 0,
                        "NORMAL" : 1,
                        "TEXCOORD_0" : 2,
                        "COLOR_0" : 3,
                        "JOINTS_0" : 4,
                        "WEIGHTS_0" : 5
                    },
                    "indices" : 6,
                    "material" : 0
                }
            ]
        },
        {
            "name" : "Cube.006",
            "primitives" : [
                {
                    "attributes" : {
                        "POSITION" : 7,
                        "NORMAL" : 8,
                        "TEXCOORD_0" : 9
                    },
                    "indices" : 10,
                    "material" : 1
                }
            ]
        },
        {
            "name" : "Cube.002",
            "primitives" : [
                {
                    "attributes" : {
                        "POSITION" : 11,
                        "NORMAL" : 12,
                        "TEXCOORD_0" : 13,
                        "COLOR_0" : 14
                    },
                    "indices" : 10,
                    "material" : 1
                }
            ]
        }
    ],
    "textures" : [
        {
            "source" : 0
        },
        {
            "source" : 1
        },
        {
            "source" : 2
        },
        {
            "source" : 3
        }
    ],
    "images" : [
        {
            "mimeType" : "image/jpeg",
            "name" : "normal",
            "uri" : "textures/rock/normal.jpg"
        },
        {
            "mimeType" : "image/jpeg",
            "name" : "baseColor",
            "uri" : "textures/rock/baseColor.jpg"
        },
        {
            "mimeType" : "image/jpeg",
            "name" : "normal",
            "uri" : "textures/grass/normal.jpg"
        },
        {
            "mimeType" : "image/jpeg",
            "name" : "baseColor",
            "uri" : "textures/grass/baseColor.jpg"
        }
    ],
    "accessors" : [
        {
            "bufferView" : 0,
            "componentType" : 5126,
            "count" : 10872,
            "max" : [
                32.110843658447266,
                6.469580173492432,
                13.388568878173828
            ],
            "min" : [
                -32.070533752441406,
                -3.228442430496216,
                -18.434406280517578
            ],
            "type" : "VEC3"
        },
        {
            "bufferView" : 1,
            "componentType" : 5126,
            "count" : 10872,
            "type" : "VEC3"
        },
        {
            "bufferView" : 2,
            "componentType" : 5126,
            "count" : 10872,
            "type" : "VEC2"
        },
        {
            "bufferView" : 3,
            "componentType" : 5126,
            "count" : 10872,
            "type" : "VEC4"
        },
        {
            "bufferView" : 4,
            "componentType" : 5123,
            "count" : 10872,
            "type" : "VEC4"
        },
        {
            "bufferView" : 5,
            "componentType" : 5126,
            "count" : 10872,
            "type" : "VEC4"
        },
        {
            "bufferView" : 6,
            "componentType" : 5123,
            "count" : 10878,
            "type" : "SCALAR"
        },
        {
            "bufferView" : 7,
            "componentType" : 5126,
            "count" : 649,
            "max" : [
                0.5563063621520996,
                0.8699829578399658,
                0.5536098480224609
            ],
            "min" : [
                -0.5563371777534485,
                -1.1290346384048462,
                -0.5116347670555115
            ],
            "type" : "VEC3"
        },
        {
            "bufferView" : 8,
            "componentType" : 5126,
            "count" : 649,
            "type" : "VEC3"
        },
        {
            "bufferView" : 9,
            "componentType" : 5126,
            "count" : 649,
            "type" : "VEC2"
        },
        {
            "bufferView" : 10,
            "componentType" : 5123,
            "count" : 2730,
            "type" : "SCALAR"
        },
        {
            "bufferView" : 11,
            "componentType" : 5126,
            "count" : 649,
            "max" : [
                0.5563063621520996,
                0.8699829578399658,
                0.5536098480224609
            ],
            "min" : [
                -0.5563371777534485,
                -1.1290346384048462,
                -0.5116347670555115
            ],
            "type" : "VEC3"
        },
        {
            "bufferView" : 12,
            "componentType" : 5126,
            "count" : 649,
            "type" : "VEC3"
        },
        {
            "bufferView" : 13,
            "componentType" : 5126,
            "count" : 649,
            "type" : "VEC2"
        },
        {
            "bufferView" : 14,
            "componentType" : 5126,
            "count" : 649,
            "type" : "VEC4"
        }
    ],
    "bufferViews" : [
        {
            "buffer" : 0,
            "byteLength" : 130464,
            "byteOffset" : 0
        },
        {
            "buffer" : 0,
            "byteLength" : 130464,
            "byteOffset" : 130464
        },
        {
            "buffer" : 0,
            "byteLength" : 86976,
            "byteOffset" : 260928
        },
        {
            "buffer" : 0,
            "byteLength" : 173952,
            "byteOffset" : 347904
        },
        {
            "buffer" : 0,
            "byteLength" : 86976,
            "byteOffset" : 521856
        },
        {
            "buffer" : 0,
            "byteLength" : 173952,
            "byteOffset" : 608832
        },
        {
            "buffer" : 0,
            "byteLength" : 21756,
            "byteOffset" : 782784
        },
        {
            "buffer" : 0,
            "byteLength" : 7788,
            "byteOffset" : 804540
        },
        {
            "buffer" : 0,
            "byteLength" : 7788,
            "byteOffset" : 812328
        },
        {
            "buffer" : 0,
            "byteLength" : 5192,
            "byteOffset" : 820116
        },
        {
            "buffer" : 0,
            "byteLength" : 5460,
            "byteOffset" : 825308
        },
        {
            "buffer" : 0,
            "byteLength" : 7788,
            "byteOffset" : 830768
        },
        {
            "buffer" : 0,
            "byteLength" : 7788,
            "byteOffset" : 838556
        },
        {
            "buffer" : 0,
            "byteLength" : 5192,
            "byteOffset" : 846344
        },
        {
            "buffer" : 0,
            "byteLength" : 10384,
            "byteOffset" : 851536
        }
    ],
    "buffers" : [
        {
            "byteLength" : 861920,
            "uri" : "top05.bin"
        }
    ]
}
