{
    "asset" : {
        "generator" : "Khronos glTF Blender I/O v1.1.46",
        "version" : "2.0"
    },
    "scene" : 0,
    "scenes" : [
        {
            "name" : "Scene",
            "nodes" : [
                0
            ]
        }
    ],
    "nodes" : [
        {
            "mesh" : 0,
            "name" : "Cube"
        }
    ],
    "materials" : [
        {
            "doubleSided" : true,
            "emissiveFactor" : [
                0,
                0,
                0
            ],
            "name" : "Material",
            "normalTexture" : {
                "index" : 0,
                "texCoord" : 0
            },
            "pbrMetallicRoughness" : {
                "baseColorTexture" : {
                    "index" : 1,
                    "texCoord" : 0
                },
                "metallicFactor" : 0,
                "roughnessFactor" : 0
            }
        }
    ],
    "meshes" : [
        {
            "name" : "Cube",
            "primitives" : [
                {
                    "attributes" : {
                        "POSITION" : 0,
                        "NORMAL" : 1,
                        "TEXCOORD_0" : 2,
                        "COLOR_0" : 3
                    },
                    "indices" : 4,
                    "material" : 0
                }
            ]
        }
    ],
    "textures" : [
        {
            "source" : 0
        },
        {
            "source" : 1
        }
    ],
    "images" : [
        {
            "mimeType" : "image/png",
            "name" : "normal",
            "uri" : "textures/tree/normal.png"
        },
        {
            "mimeType" : "image/png",
            "name" : "baseColor",
            "uri" : "textures/tree/baseColor.png"
        }
    ],
    "accessors" : [
        {
            "bufferView" : 0,
            "componentType" : 5126,
            "count" : 2560,
            "max" : [
                4.369690418243408,
                21.52495765686035,
                5.5018110275268555
            ],
            "min" : [
                -3.5405704975128174,
                -0.02628648281097412,
                -4.906742095947266
            ],
            "type" : "VEC3"
        },
        {
            "bufferView" : 1,
            "componentType" : 5126,
            "count" : 2560,
            "type" : "VEC3"
        },
        {
            "bufferView" : 2,
            "componentType" : 5126,
            "count" : 2560,
            "type" : "VEC2"
        },
        {
            "bufferView" : 3,
            "componentType" : 5126,
            "count" : 2560,
            "type" : "VEC4"
        },
        {
            "bufferView" : 4,
            "componentType" : 5123,
            "count" : 6810,
            "type" : "SCALAR"
        }
    ],
    "bufferViews" : [
        {
            "buffer" : 0,
            "byteLength" : 30720,
            "byteOffset" : 0
        },
        {
            "buffer" : 0,
            "byteLength" : 30720,
            "byteOffset" : 30720
        },
        {
            "buffer" : 0,
            "byteLength" : 20480,
            "byteOffset" : 61440
        },
        {
            "buffer" : 0,
            "byteLength" : 40960,
            "byteOffset" : 81920
        },
        {
            "buffer" : 0,
            "byteLength" : 13620,
            "byteOffset" : 122880
        }
    ],
    "buffers" : [
        {
            "byteLength" : 136500,
            "uri" : "redmaple.bin"
        }
    ]
}
